# xmcd CD database file
#
# Track frame offsets:
#	150
#	6424
#	22072
#	36158
#	52985
#	73309
#	89329
#	101536
#	117663
#	142066
#	160416
#	174487
#	193632
#	213870
#	231408
#	251407
#	255140
#
# Disc length: 3571 seconds
#
# Revision: 1
# Processed by: cddbd v1.5.2PL0 Copyright (c) Steve Scherf et al.
# Submitted via: CDex 1.51
#
DISCID=f20df111
DTITLE=Orquesta Wamampy - 20 Aniversario El Playboy
DYEAR=2008
DGENRE=Salsa
TTITLE0=Introducción
TTITLE1=El Playboy
TTITLE2=Virgen de Guadalupe (Rafael Flores)
TTITLE3=Josefina
TTITLE4=Te Voy a Olvidar (Juan Gabriel)
TTITLE5=Cuanto te amo
TTITLE6=El Mendigo
TTITLE7=Apretaito pero relajao (Vocal Sampling)
TTITLE8=Por amarte así
TTITLE9=Elk Recadito
TTITLE10=Con la Tierra Encima
TTITLE11=Procura (Chichi Peralta)
TTITLE12=La Negra Isabel
TTITLE13=Atrévete
TTITLE14=Rock del Gofio
TTITLE15=Esta canción pasénla ...
TTITLE16=Ésto mejor no lo sígan ...
EXTD=YEAR: 2008
EXTT0=
EXTT1=
EXTT2=
EXTT3=
EXTT4=
EXTT5=
EXTT6=
EXTT7=
EXTT8=
EXTT9=
EXTT10=
EXTT11=
EXTT12=
EXTT13=
EXTT14=
EXTT15=
EXTT16=
PLAYORDER=
